<svg width="117" height="38" viewBox="0 0 117 38" fill="none" xmlns="http://www.w3.org/2000/svg">
<path d="M15.0144 29.7917H7.77393C5.03019 29.7917 3.0486 29.3062 1.82916 28.3352C0.60972 27.3643 0 25.7691 0 23.6192V7.59839H4.72533V23.6192C4.72533 24.5208 4.95397 25.0756 5.41126 25.4224C5.86855 25.7691 6.6307 25.9078 7.77393 25.9078H15.0144V29.7917Z" fill="#00A6EB"/>
<path d="M33.0022 29.7917H24.3899C21.6462 29.7917 19.7408 29.3755 18.5976 28.4739C17.4543 27.6417 16.9208 26.1159 16.9208 23.8966V7.59839H33.0022V11.4822H21.7224V16.6838H29.6487L29.3439 20.5676H21.7986V23.6192C21.7986 24.5208 22.0272 25.0756 22.4845 25.4224C22.9418 25.7691 23.704 25.9078 24.8472 25.9078H33.1546V29.7917H33.0022Z" fill="#00A6EB"/>
<path d="M53.1223 23.4111C53.1223 25.4917 52.5125 27.0175 51.2931 28.1272C50.0737 29.2368 48.3969 29.7917 46.1867 29.7917H42.9095C40.2419 29.7917 38.3366 29.3755 37.1933 28.5433C36.0501 27.711 35.5166 26.1853 35.5166 24.1046V7.59839H45.7294C48.0921 7.59839 49.845 8.15322 50.9882 9.19353C52.1315 10.2338 52.7412 11.7596 52.7412 13.7015C52.7412 14.8112 52.4363 15.7822 51.8266 16.5451C51.2169 17.3079 50.531 17.8628 49.7688 18.2095C51.979 19.1805 53.1223 20.9144 53.1223 23.4111ZM45.3483 16.2676C47.1013 16.2676 48.0159 15.4354 48.0159 13.8402C48.0159 12.2451 47.1013 11.4129 45.3483 11.4129H40.1657V16.1983H45.3483V16.2676ZM48.3969 23.203C48.3969 22.2321 48.1683 21.4692 47.7872 20.9144C47.4061 20.4289 46.7202 20.1515 45.7294 20.1515H40.2419V23.6192C40.2419 24.4514 40.4706 25.0756 40.9279 25.4224C41.3852 25.7691 42.1473 25.9078 43.2143 25.9078H45.7294C47.4824 25.9078 48.3969 25.0062 48.3969 23.203Z" fill="#00A6EB"/>
<path d="M74.2337 29.7917H69.2797L67.9078 25.9772H59.7528L58.381 29.7917H53.427L61.2771 9.47095C61.582 8.77741 62.0393 8.29193 62.4204 8.01451C62.8777 7.7371 63.335 7.59839 63.9447 7.59839C64.5544 7.59839 65.0879 7.7371 65.469 7.94516C65.85 8.15322 66.1549 8.70805 66.4598 9.47095L74.2337 29.7917ZM66.8408 22.3014L63.9447 13.4935L60.8961 22.3014H66.8408Z" fill="#00A6EB"/>
<path d="M94.5079 29.7914H89.0204L84.2951 21.5383H80.8654V29.7914H76.1401V12.3836C76.1401 10.7191 76.5974 9.54004 77.4357 8.77714C78.2741 8.01425 79.7222 7.66748 81.7038 7.66748H85.7432C88.182 7.66748 90.0874 8.36102 91.5355 9.67875C92.9836 10.9965 93.6695 12.7303 93.6695 14.7416C93.6695 16.2674 93.2122 17.5157 92.3739 18.6254C91.5355 19.7351 90.4685 20.498 89.1728 20.9141L94.5079 29.7914ZM87.801 17.0303C88.4869 16.4061 88.7918 15.5738 88.7918 14.6722C88.7918 13.7013 88.4869 12.9384 87.8772 12.3836C87.2675 11.8287 86.4291 11.482 85.3621 11.482H82.9994C81.5513 11.482 80.8654 12.1061 80.8654 13.4239V17.9319H85.3621C86.3529 17.9319 87.1912 17.6545 87.801 17.0303Z" fill="#00A6EB"/>
<path d="M116.838 29.7917H111.884L110.512 25.9772H102.357L100.985 29.7917H96.0309L103.805 9.47095C104.11 8.77741 104.567 8.29193 104.948 8.01451C105.405 7.7371 105.863 7.59839 106.472 7.59839C107.082 7.59839 107.616 7.7371 107.997 7.94516C108.378 8.22257 108.683 8.70805 108.987 9.47095L116.838 29.7917ZM109.369 22.3014L106.472 13.4935L103.424 22.3014H109.369Z" fill="#00A6EB"/>
</svg>
