<svg xmlns="http://www.w3.org/2000/svg" viewBox="0 0 320 100" width="100%" height="100%">
        <rect width="100%" height="100%" fill="none" />
        <g transform="translate(10, 15)">
            <!-- Lagos State Crest Circular representation -->
            <circle cx="35" cy="35" r="32" fill="#d97706" opacity="0.15" />
            <circle cx="35" cy="35" r="28" fill="#ffffff" stroke="#b45309" stroke-width="2" />
            <circle cx="35" cy="35" r="24" fill="none" stroke="#dc2626" stroke-width="1.5" stroke-dasharray="2, 2" />
            <!-- Inner crest shield structure -->
            <path d="M28 28 L42 28 L42 42 C42 46, 35 50, 35 50 C35 50, 28 46, 28 42 Z" fill="#2563eb" stroke="#b45309" stroke-width="1" />
            <rect x="31" y="22" width="8" height="6" fill="#eab308" rx="1" />
            <path d="M20 40 L28 40" stroke="#16a34a" stroke-width="2" />
            <path d="M42 40 L50 40" stroke="#16a34a" stroke-width="2" />
        </g>
        <text x="95" y="32" font-family="Inter, system-ui, sans-serif" font-size="7.5" font-weight="900" letter-spacing="0.5" fill="#1f2937">OFFICE OF SPECIAL ADVISER</text>
        <text x="95" y="47" font-family="Inter, system-ui, sans-serif" font-size="11.5" font-weight="900" fill="#1f2937">CLIMATE CHANGE &amp; CIRCULAR</text>
        <text x="95" y="62" font-family="Inter, system-ui, sans-serif" font-size="11.5" font-weight="900" fill="#059669">ECONOMY</text>
        
        <!-- Colorful Underline Strip -->
        <g transform="translate(95, 68)">
            <rect x="0" y="0" width="40" height="3" fill="#dc2626" />
            <rect x="40" y="0" width="45" height="3" fill="#eab308" />
            <rect x="85" y="0" width="40" height="3" fill="#16a34a" />
            <rect x="125" y="0" width="45" height="3" fill="#2563eb" />
        </g>
    </svg>