<svg xmlns="http://www.w3.org/2000/svg" viewBox="0 0 300 100" width="100%" height="100%">
        <rect width="100%" height="100%" fill="none" />
        <!-- Colorful overlapping heart flower -->
        <g transform="translate(130, 5)">
            <path d="M20 34 C12 24, 20 8, 20 8 C20 8, 28 24, 20 34 Z" fill="#ec4899" opacity="0.9" />
            <path d="M20 34 C28 24, 38 20, 38 20 C38 20, 24 32, 20 34 Z" fill="#14b8a6" opacity="0.9" />
            <path d="M20 34 C12 24, 2 20, 2 20 C2 20, 16 32, 20 34 Z" fill="#eab308" opacity="0.9" />
            <path d="M20 34 C20 38, 28 44, 28 44 C28 44, 20 40, 20 34 Z" fill="#ef4444" opacity="0.9" />
            <circle cx="20" cy="28" r="4.5" fill="#ffffff" />
        </g>
        <text x="150" y="82" text-anchor="middle" font-family="Inter, system-ui, sans-serif" font-size="20" font-weight="950" fill="#db2777" letter-spacing="3">MAGNA</text>
    </svg>