<svg xmlns="http://www.w3.org/2000/svg" viewBox="0 0 300 100" width="100%" height="100%">
        <rect width="100%" height="100%" fill="none" />
        <!-- Black Windrose Compass Star -->
        <g transform="translate(135, 5)">
            <polygon points="15,0 18,12 30,15 18,18 15,30 12,18 0,15 12,12" fill="#0f172a" />
            <polygon points="15,4 17,13 26,15 17,17 15,26 13,17 4,15 13,13" fill="#ffffff" />
            <polygon points="15,8 16,14 21,15 16,16 15,22 14,16 9,15 14,14" fill="#0f172a" />
            <circle cx="15" cy="15" r="2" fill="#ffffff" />
        </g>
        <text x="150" y="68" text-anchor="middle" font-family="Inter, system-ui, sans-serif" font-size="20" font-weight="950" fill="#0f172a" letter-spacing="3.5">TIGLE</text>
        <text x="150" y="85" text-anchor="middle" font-family="Inter, system-ui, sans-serif" font-size="8.5" font-weight="800" fill="#2563eb" letter-spacing="0.5">Dredging and Construction</text>
    </svg>