<svg xmlns="http://www.w3.org/2000/svg" viewBox="0 0 320 100" width="100%" height="100%">
        <rect width="100%" height="100%" fill="none" />
        <!-- Blue circle hands reaching up -->
        <g transform="translate(15, 15)">
            <circle cx="30" cy="30" r="28" fill="#1e3a8a" />
            <!-- Silhouette of hands inside -->
            <path d="M22 45 C22 35, 26 25, 30 25 C34 25, 38 35, 38 45 Z" fill="#ffffff" />
            <path d="M14 45 C14 38, 18 30, 22 30 C26 30, 28 38, 28 45 Z" fill="#93c5fd" />
            <path d="M32 45 C32 38, 36 30, 40 30 C44 30, 46 38, 46 45 Z" fill="#93c5fd" />
            <!-- Small Heart -->
            <path d="M30 14 C30 14, 27 10, 25 12 C23 14, 30 20, 30 20 C30 20, 37 14, 35 12 C33 10, 30 14, 30 14 Z" fill="#ef4444" />
        </g>
        <text x="90" y="56%" dominant-baseline="middle" font-family="Inter, system-ui, sans-serif" font-size="23" font-weight="950" fill="#1e3a8a" letter-spacing="1">THE SPECIAL YOUTH</text>
    </svg>